<?xml version="1.0" standalone="no"?><!DOCTYPE svg PUBLIC "-//W3C//DTD SVG 1.1//EN" "http://www.w3.org/Graphics/SVG/1.1/DTD/svg11.dtd"><svg class="icon" width="32px" height="32.00px" viewBox="0 0 1024 1024" version="1.1" xmlns="http://www.w3.org/2000/svg"><path fill="#555555" d="M591.3 742.2c-21.2 0-38.4-17.2-38.4-38.4v-256c0-21.2 17.2-38.4 38.4-38.4s38.4 17.2 38.4 38.4v256c0 21.2-17.2 38.4-38.4 38.4zM431.3 742.2c-21.2 0-38.4-17.2-38.4-38.4v-256c0-21.2 17.2-38.4 38.4-38.4s38.4 17.2 38.4 38.4v256c0 21.2-17.2 38.4-38.4 38.4zM687.3 335.8h-352v-144c0-44.1 35.9-80 80-80h192c44.1 0 80 35.9 80 80v144z m-256-96h160v-32h-160v32z"  /><path fill="#555555" d="M703 911.8H319.6c-61.9 0-112.3-50.4-112.3-112.3V239.8h608v559.7c0 61.9-50.4 112.3-112.3 112.3z m-399.7-576v463.7c0 9 7.3 16.3 16.3 16.3H703c9 0 16.3-7.3 16.3-16.3V335.8h-416z"  /><path fill="#555555" d="M863.3 335.8h-704c-26.5 0-48-21.5-48-48s21.5-48 48-48h704c26.5 0 48 21.5 48 48s-21.5 48-48 48z"  /></svg>