<?xml version="1.0" standalone="no"?><!DOCTYPE svg PUBLIC "-//W3C//DTD SVG 1.1//EN" "http://www.w3.org/Graphics/SVG/1.1/DTD/svg11.dtd"><svg t="1582156222490" class="icon" viewBox="0 0 1024 1024" version="1.1" xmlns="http://www.w3.org/2000/svg" p-id="2016" xmlns:xlink="http://www.w3.org/1999/xlink" width="200" height="200"><defs><style type="text/css"></style></defs><path d="M382.72 424.32c-10.24 0-18.56-7.68-19.2-17.92-3.84-62.72 10.88-112 42.24-145.28 37.12-39.68 86.4-45.44 112.64-45.44 10.88 0 19.2 8.32 19.2 19.2s-8.32 19.2-19.2 19.2c-19.84 0-57.6 4.48-84.48 33.28-24.32 25.6-35.2 65.28-32 117.12 0.64 10.88-7.68 19.84-17.92 20.48-0.64-0.64-1.28-0.64-1.28-0.64z" fill="#8a8a8a" p-id="2017"></path><path d="M654.72 424.32h-1.28c-10.88-0.64-18.56-9.6-17.92-20.48 3.2-51.84-7.68-91.52-32-117.12-27.52-28.8-64.64-33.28-85.12-33.28-10.88 0-19.2-8.32-19.2-19.2s8.32-19.2 19.2-19.2c26.24 0 75.52 5.76 112.64 45.44 32 33.92 46.08 82.56 42.24 145.28 0 10.88-8.96 18.56-18.56 18.56z" fill="#8a8a8a" p-id="2018"></path><path d="M742.4 405.12h-448c-14.08 0-25.6 11.52-25.6 25.6V755.2c0 14.08 11.52 25.6 25.6 25.6h448c14.08 0 25.6-11.52 25.6-25.6V430.72c0-14.08-11.52-25.6-25.6-25.6z m-204.8 181.76v95.36c0 10.88-8.32 19.2-19.2 19.2h-0.64c-10.88 0-19.2-8.32-19.2-19.2V586.88c-14.72-7.04-24.32-21.76-24.32-39.04 0-24.32 19.84-43.52 43.52-43.52s43.52 19.84 43.52 43.52c0.64 17.28-8.96 32-23.68 39.04z" fill="#8a8a8a" p-id="2019"></path></svg>