<?xml version="1.0" standalone="no"?><!DOCTYPE svg PUBLIC "-//W3C//DTD SVG 1.1//EN" "http://www.w3.org/Graphics/SVG/1.1/DTD/svg11.dtd"><svg t="1581955670219" class="icon" viewBox="0 0 1024 1024" version="1.1" xmlns="http://www.w3.org/2000/svg" p-id="1514" xmlns:xlink="http://www.w3.org/1999/xlink" width="200" height="200"><defs><style type="text/css"></style></defs><path d="M829.44 882.688h-634.88c-28.672 0-53.248-24.576-53.248-53.248v-634.88c0-28.672 24.576-53.248 53.248-53.248h634.88c28.672 0 53.248 24.576 53.248 53.248v107.861333c0 11.605333-8.874667 20.48-20.48 20.48s-20.48-8.874667-20.48-20.48V194.56c0-6.144-6.144-12.288-12.288-12.288h-634.88c-6.144 0-12.288 6.144-12.288 12.288v634.88c0 6.144 6.144 12.288 12.288 12.288h634.88c6.144 0 12.288-6.144 12.288-12.288v-107.178667c0-11.605333 8.874667-20.48 20.48-20.48s20.48 8.874667 20.48 20.48v107.178667c0 28.672-24.576 53.248-53.248 53.248z" p-id="1515" fill="#8a8a8a"></path><path d="M862.208 532.48H371.370667c-11.605333 0-20.48-8.874667-20.48-20.48s8.874667-20.48 20.48-20.48h490.837333c11.605333 0 20.48 8.874667 20.48 20.48s-8.874667 20.48-20.48 20.48z" p-id="1516" fill="#8a8a8a"></path><path d="M862.208 532.48c-5.461333 0-10.24-2.048-14.336-6.144l-170.666667-170.666667c-8.192-8.192-8.192-21.162667 0-28.672 8.192-8.192 21.162667-8.192 28.672 0l170.666667 170.666667c8.192 8.192 8.192 21.162667 0 28.672-4.096 4.096-8.874667 6.144-14.336 6.144z" p-id="1517" fill="#8a8a8a"></path><path d="M691.541333 703.146667c-5.461333 0-10.24-2.048-14.336-6.144-8.192-8.192-8.192-21.162667 0-28.672l170.666667-170.666667c8.192-8.192 21.162667-8.192 28.672 0 8.192 8.192 8.192 21.162667 0 28.672l-170.666667 170.666667c-4.096 4.096-8.874667 6.144-14.336 6.144z" p-id="1518" fill="#8a8a8a"></path></svg>